<?xml version="1.0" standalone="no"?>
<!DOCTYPE svg PUBLIC "-//W3C//DTD SVG 20010904//EN"
 "http://www.w3.org/TR/2001/REC-SVG-20010904/DTD/svg10.dtd">
<svg version="1.0" xmlns="http://www.w3.org/2000/svg"
 width="717.000000pt" height="187.000000pt" viewBox="0 0 717.000000 187.000000"
 preserveAspectRatio="xMidYMid meet">

<g transform="translate(0.000000,187.000000) scale(0.100000,-0.100000)"
fill="#000000" stroke="none">
<path d="M710 1564 c-197 -51 -369 -213 -434 -408 -20 -59 -38 -193 -30 -219
4 -12 13 -17 27 -15 20 3 23 11 28 83 6 86 25 159 45 175 7 6 55 10 115 8
l104 -3 3 -47 3 -47 47 -3 47 -3 3 -47 3 -48 -75 0 -75 0 -3 -86 -3 -87 -72
-64 -72 -64 -18 27 c-12 19 -17 44 -16 76 2 41 -1 50 -22 64 -44 29 -89 -21
-58 -65 8 -12 33 -58 55 -104 77 -153 230 -277 398 -322 71 -19 239 -19 310 0
140 37 285 141 365 260 71 108 112 265 100 383 -7 65 -19 77 -49 47 -12 -12
-34 -15 -93 -13 l-78 3 -3 58 -3 57 -104 0 c-101 0 -105 1 -121 26 -17 25 -17
26 29 72 l47 48 0 76 c0 42 4 79 9 82 14 9 126 -71 171 -121 55 -63 100 -144
100 -181 0 -53 65 -68 90 -21 13 23 -1 53 -29 69 -10 5 -33 36 -51 67 -73 129
-233 250 -385 288 -74 19 -232 18 -305 -1z m313 -54 l37 -11 0 -82 0 -81 -47
-48 -47 -48 -73 0 -72 0 -3 48 -3 47 -48 3 -48 3 3 87 3 87 30 7 c42 10 223 2
268 -12z m-353 -95 l0 -75 -50 0 -50 0 0 -50 0 -50 -101 0 -100 0 18 32 c44
78 217 217 271 218 8 0 12 -22 12 -75z m100 -205 l0 -70 -75 0 -75 0 0 70 0
70 75 0 75 0 0 -70z m214 -53 c23 -30 26 -44 28 -137 l3 -105 48 -3 47 -3 0
-62 c0 -60 -1 -63 -47 -109 -43 -44 -51 -48 -95 -48 l-47 0 -3 73 -3 72 -122
3 -123 3 0 -41 c0 -22 -4 -40 -8 -40 -4 0 -27 19 -50 43 -37 38 -42 48 -42 90
l0 47 75 0 75 0 0 75 0 75 50 0 50 0 0 50 0 50 69 0 c67 0 71 -1 95 -33z m224
-119 l-3 -73 -67 0 c-38 0 -68 3 -68 8 0 4 0 36 0 72 l0 65 70 0 71 0 -3 -72z
m227 -58 c10 -16 -13 -153 -35 -214 -23 -61 -98 -179 -110 -174 -19 7 -159
134 -159 144 -1 6 6 17 14 24 9 7 15 35 17 78 l3 67 48 3 c46 3 47 4 47 36 0
18 3 36 7 39 10 11 161 8 168 -3z m-570 -265 l0 -70 -72 -3 -73 -3 0 76 0 76
73 -3 72 -3 0 -70z m-246 1 c42 -45 51 -61 51 -91 l0 -36 123 3 c118 3 122 4
125 26 3 20 9 22 60 22 47 0 60 4 83 26 32 31 25 34 135 -64 l59 -53 -35 -29
c-89 -74 -225 -120 -355 -120 -156 0 -287 53 -398 162 -38 37 -67 71 -65 76 5
15 142 131 154 132 6 0 34 -24 63 -54z"/>
<path d="M5975 1143 c-11 -16 -65 -82 -120 -148 -290 -347 -297 -356 -290
-384 11 -48 25 -51 232 -51 l193 0 0 -74 c0 -98 4 -106 50 -106 46 0 50 8 50
105 l0 74 31 3 c38 4 54 26 45 61 -5 23 -12 27 -41 27 l-35 0 -2 258 -3 257
-45 3 c-39 2 -48 -2 -65 -25z m15 -313 l0 -180 -145 0 c-84 0 -145 4 -145 9 0
8 99 132 184 231 11 14 39 46 60 73 21 26 40 47 42 47 2 0 4 -81 4 -180z"/>
<path d="M6393 1149 c-60 -30 -109 -88 -128 -153 -9 -31 -14 -60 -10 -66 3 -5
22 -10 41 -10 28 0 36 5 45 28 29 74 46 97 89 119 81 42 192 18 238 -52 27
-42 29 -99 4 -140 -11 -17 -112 -120 -226 -230 -188 -182 -207 -202 -204 -230
l3 -30 265 0 265 0 0 40 0 40 -188 5 -187 5 161 160 c88 88 171 176 184 196
70 108 21 261 -101 315 -72 32 -188 33 -251 3z"/>
<path d="M1970 936 c0 -52 -4 -97 -8 -100 -5 -3 -22 3 -38 13 -16 10 -50 23
-76 29 -97 24 -215 -29 -272 -122 -27 -43 -30 -58 -31 -125 0 -89 21 -137 83
-193 79 -71 184 -85 283 -35 40 20 52 22 56 11 3 -9 20 -14 44 -14 l39 0 0
315 0 315 -40 0 -40 0 0 -94z m-81 -170 c68 -43 95 -141 58 -213 -10 -18 -34
-45 -54 -60 -31 -24 -46 -28 -98 -28 -52 0 -68 5 -99 28 -47 36 -66 75 -66
133 0 56 28 110 73 141 47 32 134 31 186 -1z"/>
<path d="M3979 876 c-91 -28 -154 -98 -180 -198 -11 -39 -10 -57 1 -100 23
-94 72 -152 153 -187 88 -38 170 -23 255 46 49 40 53 62 13 86 -28 17 -29 17
-67 -18 -76 -70 -191 -56 -244 30 -11 18 -20 37 -20 43 0 8 62 12 203 14 l202
3 -3 54 c-6 107 -83 201 -187 229 -53 14 -77 14 -126 -2z m146 -99 c29 -15 65
-59 65 -79 0 -16 -14 -18 -145 -18 -128 0 -145 2 -145 17 0 24 75 91 107 96
35 5 92 -3 118 -16z"/>
<path d="M4595 870 c-215 -83 -222 -379 -12 -478 85 -40 192 -19 265 51 39 38
40 58 5 79 -27 16 -29 15 -67 -18 -63 -55 -146 -58 -206 -7 -40 33 -66 81 -48
88 7 3 99 6 203 7 l190 3 3 39 c8 95 -78 210 -179 240 -67 20 -92 19 -154 -4z
m166 -96 c28 -14 69 -64 69 -83 0 -7 -48 -11 -150 -11 -172 0 -177 3 -111 69
52 52 122 61 192 25z"/>
<path d="M2237 874 c-4 -4 -7 -47 -7 -96 0 -137 40 -200 153 -239 37 -13 43
-12 150 18 23 7 22 -23 -3 -64 -41 -67 -123 -75 -185 -17 -29 27 -51 26 -79
-5 -16 -18 -15 -21 21 -56 21 -20 53 -43 72 -51 83 -35 183 -1 239 81 l32 48
-2 191 -3 191 -35 0 -35 0 -5 -85 c-5 -87 -13 -112 -48 -143 -26 -24 -90 -31
-121 -15 -49 26 -66 63 -71 156 l-5 87 -30 3 c-17 2 -34 0 -38 -4z"/>
<path d="M2920 871 c-84 -15 -130 -64 -130 -139 0 -72 46 -107 175 -136 87
-19 112 -43 90 -86 -8 -15 -22 -30 -30 -34 -31 -11 -112 -6 -151 10 -37 16
-39 15 -57 -7 -24 -30 -19 -49 23 -73 50 -30 180 -30 230 0 98 57 108 186 18
239 -16 9 -62 25 -101 35 -92 23 -104 28 -112 48 -4 11 3 25 20 39 31 27 108
31 139 8 28 -21 48 -18 69 11 15 20 16 28 6 40 -29 35 -121 57 -189 45z"/>
<path d="M3424 871 c-52 -9 -89 -33 -114 -74 -25 -41 -25 -83 0 -125 22 -36
42 -46 149 -73 72 -17 111 -40 111 -64 0 -7 -9 -24 -21 -39 -18 -23 -28 -26
-79 -26 -31 0 -74 7 -93 15 -35 14 -36 14 -57 -12 -26 -34 -22 -44 25 -66 93
-45 206 -30 268 34 33 35 37 46 37 90 0 86 -35 117 -168 150 -40 10 -80 23
-88 30 -21 17 -17 46 8 63 28 20 108 21 134 1 28 -21 51 -18 70 10 14 21 14
28 3 41 -31 37 -110 57 -185 45z"/>
</g>
</svg>
